<?xml version="1.0" encoding="UTF-8"?>
<svg id="Layer_1" xmlns="http://www.w3.org/2000/svg" xmlns:xlink="http://www.w3.org/1999/xlink" viewBox="0 0 1316 686.33">
  <defs>
    <style>
      .cls-1 {
        fill: #fff;
      }

      .cls-2 {
        fill: url(#linear-gradient);
      }
    </style>
    <linearGradient id="linear-gradient" x1="13.37" y1="539.76" x2="481.97" y2="52.16" gradientTransform="translate(0 574.58) scale(1 -1)" gradientUnits="userSpaceOnUse">
      <stop offset="0" stop-color="#4a1463"/>
      <stop offset="1" stop-color="#27042d"/>
    </linearGradient>
  </defs>
  <g id="bg">
    <rect class="cls-2" y="31.29" width="512" height="512" rx="51.9" ry="51.9"/>
  </g>
  <g id="backup">
    <path class="cls-1" d="M397.7,89.02l76.48,282.82h-101.27l-28.03-101.87-.61-2.2h-.05l-.2-.72-14.26-51.56c-5.8-20.77-11.86-42.93-17.72-64.36l-3.36-12.28-3.1-11.31-.09.37c-4.49-15.73-8.43-28.78-11.76-38.88h103.95M288.31,211.38c-1.68,13.57-2.57,26.5-2.57,38.06,0,7.1.03,11.59.08,14.12.04,1.57.07,3.18.64,4.28,0,.06,0,.12.01.18l.17,2.82h.18l.02.21c4.91,51.97,26.71,86.07,45.48,100.66l.16.13h-104.1c19.07-28.43,37.52-77.66,59.92-160.46M400,86.02h-109.68v2.19c4.02,12.06,8.9,28.39,14.01,46.55l-9.38,39.48c-27.66,108.34-48.62,167.08-70.92,198.64h.12v1.95h114.43v-1.95l-4.39-3.53c-18.52-14.38-39.61-48.26-44.36-98.59h52.16l28.03,101.88h-17.06v2.19h135.15v-2.19h-10.6l-77.51-286.62h0ZM289.03,266.27c-.17,0-.3-1.78-.3-16.83,0-25.96,4.63-58.98,12.19-89.33l4.87-20.47c6.7,24.49,14.14,51.79,21.08,76.65l14.26,51.55h-51.67c-.09-1.44-.18-1.75-.26-1.75-.06,0-.12.17-.17.17h0Z"/>
    <path class="cls-1" d="M29.89,476.75c22.3-31.56,43.26-90.3,70.92-198.64l9.38-39.48c-5.12-18.16-9.99-34.49-14.01-46.55v-2.19h109.68l77.51,286.62h10.6v2.19h-135.15v-2.19h17.06l-28.03-101.88h-52.16c4.75,50.33,25.84,84.21,44.36,98.59l4.39,3.53v1.95H30.02v-1.95h-.12ZM95.33,371.71h51.67l-14.26-51.55c-6.95-24.86-14.38-52.16-21.08-76.65l-4.87,20.47c-7.56,30.34-12.19,63.37-12.19,89.33s.37,12.43.73,18.4Z"/>
    <path class="cls-1" d="M280.74,139.64c-42.1,2.05-43.63,3.75-45.67,45.67-2.05-42.1-3.75-43.63-45.67-45.67,42.1-2.05,43.63-3.75,45.67-45.67,2.05,42.1,3.75,43.63,45.67,45.67Z"/>
    <path class="cls-1" d="M219.16,101.55c-27.44,1.33-28.44,2.44-29.77,29.77-1.33-27.44-2.44-28.44-29.77-29.77,27.44-1.33,28.44-2.44,29.77-29.77,1.33,27.44,2.44,28.44,29.77,29.77Z"/>
  </g>
  <rect class="cls-1" x="288.74" y="267.84" width="55.98" height="9.2"/>
  <rect class="cls-1" x="92.17" y="370.24" width="57.26" height="9.2"/>
  <rect class="cls-1" x="158.64" y="467.26" width="135.33" height="11.45"/>
  <rect class="cls-1" x="352.77" y="363.39" width="135.33" height="11.45"/>
</svg>