<?xml version="1.0" encoding="UTF-8"?>
<svg xmlns="http://www.w3.org/2000/svg" version="1.1" xmlns:xlink="http://www.w3.org/1999/xlink" viewBox="0 0 512 512">
  <defs>
    <style>
      .cls-1 {
        stroke-width: .9px;
      }

      .cls-1, .cls-2, .cls-3, .cls-4, .cls-5, .cls-6, .cls-7, .cls-8, .cls-9 {
        display: none;
      }

      .cls-1, .cls-4 {
        fill: none;
      }

      .cls-1, .cls-4, .cls-5, .cls-7 {
        stroke-miterlimit: 10;
      }

      .cls-1, .cls-5 {
        stroke: #fff;
      }

      .cls-2, .cls-7 {
        fill: #aeb2ff;
      }

      .cls-3 {
        fill: url(#linear-gradient-2);
      }

      .cls-4 {
        stroke: #aeb2ff;
      }

      .cls-10 {
        fill: #fff;
        font-family: Cider-Script, Cider;
        font-size: 387.8px;
      }

      .cls-11 {
        fill: url(#linear-gradient-3);
      }

      .cls-6, .cls-9, .cls-12 {
        fill: #64f4ff;
      }

      .cls-7 {
        font-family: TiltWarp-Regular, 'Tilt Warp';
        font-size: 472.1px;
        stroke: #00edff;
        stroke-width: 2px;
      }

      .cls-9 {
        font-family: ButikDisplayNormal-Bl, 'Butik Display Normal';
        font-size: 578.7px;
      }

      .cls-13 {
        fill: url(#linear-gradient);
      }
    </style>
    <linearGradient id="linear-gradient" x1="13.4" y1="4.5" x2="482" y2="492.1" gradientUnits="userSpaceOnUse">
      <stop offset="0" stop-color="#4a1463"/>
      <stop offset="1" stop-color="#27042d"/>
    </linearGradient>
    <linearGradient id="linear-gradient-2" x1="189.2" y1="185.5" x2="288.8" y2="185.5" xlink:href="#linear-gradient"/>
    <linearGradient id="linear-gradient-3" x1="1186.3" y1="478.7" x2="1316" y2="478.7" xlink:href="#linear-gradient"/>
  </defs>
  <!-- Generator: Adobe Illustrator 28.6.0, SVG Export Plug-In . SVG Version: 1.2.0 Build 709)  -->
  <g>
    <g id="bg">
      <path class="cls-5" d="M277.4,71.5l23,70.8c9.5,29.4,36.9,49.2,67.8,49.2h74.5c21.8,0,30.8,27.9,13.2,40.7l-60.3,43.8c-25,18.1-35.4,50.3-25.9,79.7l23,70.8c6.7,20.7-17,37.9-34.6,25.1l-60.3-43.8c-25-18.1-58.8-18.1-83.8,0l-60.3,43.8c-17.6,12.8-41.3-4.4-34.6-25.1l23-70.8c9.5-29.4-.9-61.5-25.9-79.7l-60.3-43.8c-17.6-12.8-8.6-40.7,13.2-40.7h74.5c30.9,0,58.2-19.9,67.8-49.2l23-70.8c6.7-20.7,36-20.7,42.7,0Z"/>
      <rect class="cls-13" y="1" width="512" height="512" rx="51.9" ry="51.9"/>
    </g>
    <g id="Layer_2" class="cls-8">
      <text class="cls-10" transform="translate(149 376.5)"><tspan x="0" y="0">A</tspan></text>
    </g>
    <g id="text">
      <text class="cls-7" transform="translate(100.9 410.7)"><tspan x="0" y="0">A</tspan></text>
      <path class="cls-2" d="M48,430c1.4-8.3,32.3-4.8,60-12,38.5-10.1,86.6-45.1,128.1-155.5h0c102.1,0,184.9,82.8,184.9,184.9h0c7.6,5.9,17.5,11.8,25.1,8.6,27.9-12,12.7-145.6-41.6-243.8-20.1-36.3-66.9-106.4-168.3-161h0c19.4,116.9,2.2,205.5-13.1,257.8-15.2,52.2-40.4,138.4-96.9,149.7-36.8,7.4-79.8-18.6-78.1-28.7Z"/>
      <path class="cls-3" d="M244.3,141.7l9.2,28.3h29.8c5.4,0,7.6,6.9,3.3,10l-24.1,17.5,9.2,28.3c1.7,5.1-4.2,9.3-8.5,6.2l-24.1-17.5-24.1,17.5c-4.3,3.2-10.2-1.1-8.5-6.2l9.2-28.3-24.1-17.5c-4.3-3.2-2.1-10,3.3-10h29.8s9.2-28.3,9.2-28.3c1.7-5.1,8.9-5.1,10.5,0Z"/>
      <path class="cls-4" d="M244.3,141.7l9.2,28.3h29.8c5.4,0,7.6,6.9,3.3,10l-24.1,17.5,9.2,28.3c1.7,5.1-4.2,9.3-8.5,6.2l-24.1-17.5-24.1,17.5c-4.3,3.2-10.2-1.1-8.5-6.2l9.2-28.3-24.1-17.5c-4.3-3.2-2.1-10,3.3-10h29.8s9.2-28.3,9.2-28.3c1.7-5.1,8.9-5.1,10.5,0Z"/>
    </g>
    <g id="Layer_4">
      <g>
        <polygon class="cls-6" points="458 26.6 487.7 107 568.2 136.8 487.7 166.5 458 247 428.2 166.5 347.8 136.8 428.2 107 458 26.6"/>
        <text class="cls-9" transform="translate(421.5 461.6)"><tspan x="0" y="0">A</tspan></text>
        <path class="cls-12" d="M73.2,458.8c-1.2,0-1.9-1.4-1.2-2.4,30.7-44.8,59.7-126.9,97.8-276.3l13.2-55.4c1.4-4.7,3.2-11.4,4.2-19.6,1.2-9.4,1.7-14.1,0-18.8-4.9-13.3-22.5-16.8-23.9-17.1-2.6-.5-19.6-3.7-30.8,8.5-9.5,10.5-9.2,26.1-3.4,35.9,1.2,2,4.8,8.1,12,10.3.6.2,10.6,3,17.1-3.4,6.4-6.3,6-18.1.8-22.2-2-1.6-5.5-2.6-7.8-1.3-3,1.7-1.9,6.2-4,7-2.8,1-9.8-4.9-10-12-.2-7.8,8-12.4,9-13,8.9-5,18.3-.4,19,0,5.5,2.8,8,7.4,9.1,9.4.2.4,5.4,9.9,2.2,19.7-4.1,12.7-20.1,22.2-35.4,19.2-14.7-2.9-24.3-16.3-25.6-29.1-2.3-21.1,18.5-33.7,22.2-35.9,10.5-6.1,20.9-6,25.7-6h124c17.6,0,33,11.8,37.5,28.7l100.6,372.2c.2.7.8,1.1,1.5,1.1h12.2c.8,0,1.5.7,1.5,1.5s-.7,1.5-1.5,1.5h-186.6c-.8,0-1.5-.7-1.5-1.5s.7-1.5,1.5-1.5h12.8c4.9,0,8.4-4.6,7.1-9.4l-36.4-132.5c-.2-.7-.8-1.1-1.5-1.1h-70.3c-.9,0-1.6.8-1.5,1.7,7,69.7,36.3,116.5,62,136.6l2.8,2.2c1.1.9.5,2.7-.9,2.7H73.2ZM163.5,311.5h69c1,0,1.7-1,1.5-1.9l-19.4-70.4c-9.2-33-18.9-69-28-101.8-.4-1.5-2.6-1.5-2.9,0l-5.4,23c-10.6,42.5-17.1,88.8-17.1,125.3s.4,16.4.9,24.3c0,.8.7,1.4,1.5,1.4Z"/>
        <path class="cls-12" d="M234.9,313.7c-39.7,1.9-41.3,3.5-43.3,43.3-1.9-39.7-3.5-41.3-43.3-43.3,39.7-1.9,41.3-3.5,43.3-43.3,1.9,39.7,3.5,41.3,43.3,43.3Z"/>
        <g class="cls-8">
          <path class="cls-11" d="M1316,478.7c-59.6,2.9-61.9,5.3-64.8,64.8-2.9-59.6-5.3-61.9-64.8-64.8,59.6-2.9,61.9-5.3,64.8-64.8,2.9,59.6,5.3,61.9,64.8,64.8Z"/>
        </g>
        <path class="cls-12" d="M158.6,177.4c-53.8,2.6-55.9,4.7-58.5,58.5-2.6-53.8-4.7-55.9-58.5-58.5,53.8-2.6,55.9-4.7,58.5-58.5,2.6,53.8,4.7,55.9,58.5,58.5Z"/>
        <path class="cls-12" d="M430.4,74c-27.6,1.3-28.7,2.4-30,30-1.3-27.6-2.4-28.7-30-30,27.6-1.3,28.7-2.4,30-30,1.3,27.6,2.4,28.7,30,30Z"/>
        <circle class="cls-1" cx="157.6" cy="98.8" r="41.5"/>
      </g>
    </g>
    <g id="backup" class="cls-8">
      <path class="cls-12" d="M283.7,374.9c18.3-25.9,35.5-74.1,58.2-163l7.7-32.4c-4.2-14.9-8.2-28.3-11.5-38.2v-1.8h90l63.6,235.2h8.7v1.8h-110.9v-1.8h14l-23-83.6h-42.8c3.9,41.3,21.2,69.1,36.4,80.9l3.6,2.9v1.6h-93.9v-1.6ZM337.4,288.7h42.4l-11.7-42.3c-5.7-20.4-11.8-42.8-17.3-62.9l-4,16.8c-6.2,24.9-10,52-10,73.3s.3,10.2.6,15.1Z"/>
      <path class="cls-12" d="M387.3,289.5c-24.7,1.2-25.6,2.2-26.8,26.8-1.2-24.7-2.2-25.6-26.8-26.8,24.7-1.2,25.6-2.2,26.8-26.8,1.2,24.7,2.2,25.6,26.8,26.8Z"/>
    </g>
    <g id="Layer_5" class="cls-8">
      <g>
        <path class="cls-12" d="M302.7,178c-9.4,4.6-13.1,8.3-17.7,17.7-4.6-9.4-8.3-13.1-17.7-17.7,9.4-4.6,13.1-8.3,17.7-17.7,4.6,9.4,8.3,13.1,17.7,17.7Z"/>
        <path class="cls-12" d="M236.5,376.5c-33,6.1-37.9,11-44,44-6.1-33-11-37.9-44-44,33-6.1,37.9-11,44-44,6.1,33,11,37.9,44,44Z"/>
      </g>
    </g>
  </g>
</svg>