<?xml version="1.0" encoding="UTF-8"?>
<svg xmlns="http://www.w3.org/2000/svg" version="1.1" xmlns:xlink="http://www.w3.org/1999/xlink" viewBox="0 0 512 512">
  <defs>
    <style>
      .cls-1 {
        fill: #00f9ff;
      }

      .cls-2 {
        fill: url(#linear-gradient);
      }
    </style>
    <linearGradient id="linear-gradient" x1="13.4" y1="508.5" x2="482" y2="20.9" gradientTransform="translate(0 512) scale(1 -1)" gradientUnits="userSpaceOnUse">
      <stop offset="0" stop-color="#4a1463"/>
      <stop offset="1" stop-color="#27042d"/>
    </linearGradient>
  </defs>
  <!-- Generator: Adobe Illustrator 28.6.0, SVG Export Plug-In . SVG Version: 1.2.0 Build 709)  -->
  <g>
    <g id="Layer_1">
      <g id="bg">
        <rect class="cls-2" width="512" height="512" rx="51.9" ry="51.9"/>
      </g>
      <g id="backup">
        <path class="cls-1" d="M224,343.6c22.3-31.6,43.3-90.3,70.9-198.6l9.4-39.5c-5.1-18.2-10-34.5-14-46.6v-2.2h109.7l77.5,286.6h10.6v2.2h-135.1v-2.2h17.1l-28-101.9h-52.2c4.8,50.3,25.8,84.2,44.4,98.6l4.4,3.5v1.9h-114.4v-1.9h-.1ZM289.5,238.6h51.7l-14.3-51.5c-6.9-24.9-14.4-52.2-21.1-76.7l-4.9,20.5c-7.6,30.3-12.2,63.4-12.2,89.3s.4,12.4.7,18.4Z"/>
        <path class="cls-1" d="M29.9,447.5c22.3-31.6,43.3-90.3,70.9-198.6l9.4-39.5c-5.1-18.2-10-34.5-14-46.6v-2.2h109.7l77.5,286.6h10.6v2.2h-135.1v-2.2h17.1l-28-101.9h-52.2c4.8,50.3,25.8,84.2,44.4,98.6l4.4,3.5v1.9H30v-1.9h-.1ZM95.3,342.4h51.7l-14.3-51.5c-6.9-24.9-14.4-52.2-21.1-76.7l-4.9,20.5c-7.6,30.3-12.2,63.4-12.2,89.3s.4,12.4.7,18.4Z"/>
        <path class="cls-1" d="M323.7,107.8c-68.6,3.3-71.1,6.1-74.5,74.5-3.3-68.6-6.1-71.1-74.5-74.5,68.6-3.3,71.1-6.1,74.5-74.5,3.3,68.6,6.1,71.1,74.5,74.5Z"/>
        <path class="cls-1" d="M211.6,53.4c-36.6,1.8-37.9,3.3-39.7,39.7-1.8-36.6-3.3-37.9-39.7-39.7,36.6-1.8,37.9-3.3,39.7-39.7,1.8,36.6,3.3,37.9,39.7,39.7Z"/>
        <path class="cls-1" d="M460.1,409.7c-36.6,1.8-37.9,3.3-39.7,39.7-1.8-36.6-3.3-37.9-39.7-39.7,36.6-1.8,37.9-3.3,39.7-39.7,1.8,36.6,3.3,37.9,39.7,39.7Z"/>
        <rect class="cls-1" x="288.7" y="236.6" width="56" height="9.2"/>
        <rect class="cls-1" x="92.2" y="339" width="57.3" height="9.2"/>
        <rect class="cls-1" x="158.6" y="436" width="135.3" height="11.4"/>
        <rect class="cls-1" x="352.8" y="332.1" width="135.3" height="11.4"/>
      </g>
    </g>
  </g>
</svg>